<svg width="96" height="96" viewBox="0 0 96 96" fill="none" xmlns="http://www.w3.org/2000/svg">
<path d="M0 48C0 21.4903 21.4903 0 48 0C74.5097 0 96 21.4903 96 48C96 74.5097 74.5097 96 48 96C21.4903 96 0 74.5097 0 48Z" fill="#1E293B"/>
<path d="M24.72 27.28L21.44 26.76V24.28H43.52L43.92 31.52H40.72L39.24 27.12L30.6 26.68V38L36.56 37.88L37.32 34.36H39.88V44.52H37.36L36.56 40.92L30.6 40.76V51.2L36.72 51.6V54H21.64V51.6L24.72 51.2V27.28Z" fill="#F1F5F9"/>
<path d="M59.2 58.2L50.64 43.28L48.36 42.76V40.28H60.12V42.76L57.28 43.28L62.28 53.08L63.4 55.84L64.56 53.08L69.16 43.28L66.04 42.76V40.28H75.8V42.76L73.32 43.24L65.36 58.16V67.2L69.72 67.6V70H54.96V67.6L59.2 67.2V58.2Z" fill="#F1F5F9"/>
<path d="M50.54 33.676C50.54 32.924 50.688 32.284 50.984 31.756C51.288 31.228 51.692 30.832 52.196 30.568C52.7 30.296 53.248 30.16 53.84 30.16C54.848 30.16 55.624 30.472 56.168 31.096C56.72 31.712 56.996 32.552 56.996 33.616C56.996 34.376 56.844 35.024 56.54 35.56C56.244 36.088 55.844 36.484 55.34 36.748C54.844 37.004 54.296 37.132 53.696 37.132C52.696 37.132 51.92 36.824 51.368 36.208C50.816 35.584 50.54 34.74 50.54 33.676ZM53.792 36.352C54.696 36.352 55.148 35.48 55.148 33.736C55.148 32.824 55.04 32.132 54.824 31.66C54.608 31.18 54.256 30.94 53.768 30.94C52.84 30.94 52.376 31.812 52.376 33.556C52.376 34.468 52.488 35.164 52.712 35.644C52.944 36.116 53.304 36.352 53.792 36.352Z" fill="#475569"/>
<path d="M58.0869 36.292L58.8789 36.196V31.468L58.1109 31.252V30.424L59.9709 30.172H60.0069L60.3069 30.412V30.676L60.2709 31.648H60.3069C60.3629 31.488 60.4949 31.292 60.7029 31.06C60.9109 30.82 61.1709 30.612 61.4829 30.436C61.8029 30.252 62.1469 30.16 62.5149 30.16C62.6909 30.16 62.8429 30.184 62.9709 30.232V32.032C62.7309 31.864 62.4389 31.78 62.0949 31.78C61.5109 31.78 61.0029 31.936 60.5709 32.248V36.184L61.9629 36.292V37H58.0869V36.292Z" fill="#475569"/>
<path d="M27.608 69.988C27.464 69.988 27.308 69.976 27.14 69.952C26.98 69.928 26.864 69.9 26.792 69.868V68.584C26.848 68.616 26.96 68.648 27.128 68.68C27.296 68.712 27.448 68.728 27.584 68.728C27.984 68.728 28.312 68.596 28.568 68.332C28.832 68.068 29.076 67.624 29.3 67H28.652L26.396 61.18L25.856 61.024V60.328H29.156V61.024L28.28 61.168L29.348 64.492L29.78 65.908L30.152 64.492L31.136 61.168L30.38 61.024V60.328H32.984V61.024L32.396 61.168C31.956 62.512 31.52 63.808 31.088 65.056C30.656 66.304 30.404 67.004 30.332 67.156C30.076 67.828 29.832 68.364 29.6 68.764C29.368 69.164 29.092 69.468 28.772 69.676C28.452 69.884 28.064 69.988 27.608 69.988Z" fill="#475569"/>
<path d="M33.4189 63.676C33.4189 62.924 33.5669 62.284 33.8629 61.756C34.1669 61.228 34.5709 60.832 35.0749 60.568C35.5789 60.296 36.1269 60.16 36.7189 60.16C37.7269 60.16 38.5029 60.472 39.0469 61.096C39.5989 61.712 39.8749 62.552 39.8749 63.616C39.8749 64.376 39.7229 65.024 39.4189 65.56C39.1229 66.088 38.7229 66.484 38.2189 66.748C37.7229 67.004 37.1749 67.132 36.5749 67.132C35.5749 67.132 34.7989 66.824 34.2469 66.208C33.6949 65.584 33.4189 64.74 33.4189 63.676ZM36.6709 66.352C37.5749 66.352 38.0269 65.48 38.0269 63.736C38.0269 62.824 37.9189 62.132 37.7029 61.66C37.4869 61.18 37.1349 60.94 36.6469 60.94C35.7189 60.94 35.2549 61.812 35.2549 63.556C35.2549 64.468 35.3669 65.164 35.5909 65.644C35.8229 66.116 36.1829 66.352 36.6709 66.352Z" fill="#475569"/>
<path d="M46.3778 67.12C46.1138 67.12 45.9218 67.064 45.8018 66.952C45.6818 66.84 45.6218 66.672 45.6218 66.448V66.124C45.4058 66.388 45.1018 66.624 44.7098 66.832C44.3178 67.032 43.9258 67.132 43.5338 67.132C42.7658 67.132 42.2178 66.936 41.8898 66.544C41.5618 66.144 41.3978 65.488 41.3978 64.576V61.192L40.7978 61.024V60.34L42.8378 60.184H42.8498L43.0898 60.352V64.576C43.0898 65.16 43.1618 65.568 43.3058 65.8C43.4498 66.032 43.7178 66.148 44.1098 66.148C44.5818 66.148 45.0218 65.964 45.4298 65.596V61.192L44.6258 61.012V60.34L46.7978 60.184H46.8218L47.1098 60.352V66.256H47.7818L47.7698 66.94C47.7378 66.948 47.5898 66.98 47.3258 67.036C47.0618 67.092 46.7458 67.12 46.3778 67.12Z" fill="#475569"/>
</svg>
