<svg width="32" height="32" viewBox="0 0 32 32" fill="none" xmlns="http://www.w3.org/2000/svg">
<path d="M7.73268 28.0001L9.86602 18.6667L2.66602 12.2667L12.266 11.4667L15.9993 2.66675L19.7327 11.4667L29.3327 12.2667L25.066 16.0001H23.9993C23.066 16.0001 22.1327 16.1334 21.1993 16.5334L24.1327 14.0001L18.266 13.4667L15.9993 8.13341L13.7327 13.4667L7.86602 14.0001L12.266 17.8667L10.9327 23.6001L15.9993 20.5334L16.666 20.9334C16.3993 21.6001 16.1327 22.4001 16.1327 23.0667L7.73268 28.0001ZM22.666 18.6667V22.6667H18.666V25.3334H22.666V29.3334H25.3327V25.3334H29.3327V22.6667H25.3327V18.6667H22.666Z" fill="#EAB308"/>
</svg>
