<svg width="48" height="48" viewBox="0 0 48 48" fill="none" xmlns="http://www.w3.org/2000/svg">
<path d="M19.125 20.7188H41.625C41.8313 20.7188 42 20.55 42 20.3438V17.7188C42 17.5125 41.8313 17.3438 41.625 17.3438H19.125C18.9187 17.3438 18.75 17.5125 18.75 17.7188V20.3438C18.75 20.55 18.9187 20.7188 19.125 20.7188ZM18.75 30.2812C18.75 30.4875 18.9187 30.6562 19.125 30.6562H41.625C41.8313 30.6562 42 30.4875 42 30.2812V27.6562C42 27.45 41.8313 27.2812 41.625 27.2812H19.125C18.9187 27.2812 18.75 27.45 18.75 27.6562V30.2812ZM42.375 7.5H5.625C5.41875 7.5 5.25 7.66875 5.25 7.875V10.5C5.25 10.7063 5.41875 10.875 5.625 10.875H42.375C42.5813 10.875 42.75 10.7063 42.75 10.5V7.875C42.75 7.66875 42.5813 7.5 42.375 7.5ZM42.375 37.125H5.625C5.41875 37.125 5.25 37.2937 5.25 37.5V40.125C5.25 40.3313 5.41875 40.5 5.625 40.5H42.375C42.5813 40.5 42.75 40.3313 42.75 40.125V37.5C42.75 37.2937 42.5813 37.125 42.375 37.125ZM5.40938 24.3234L12.7359 30.0938C13.0078 30.3094 13.4109 30.1172 13.4109 29.7703V18.2297C13.4109 17.8828 13.0125 17.6906 12.7359 17.9062L5.40938 23.6766C5.36011 23.7149 5.32025 23.7639 5.29282 23.82C5.2654 23.876 5.25115 23.9376 5.25115 24C5.25115 24.0624 5.2654 24.124 5.29282 24.18C5.32025 24.2361 5.36011 24.2851 5.40938 24.3234Z" fill="#111827"/>
</svg>
