<svg width="161" height="42" viewBox="0 0 161 42" fill="none" xmlns="http://www.w3.org/2000/svg">
<path d="M2.952 2.7L0 2.232V0H19.872L20.232 6.516H17.352L16.02 2.556L8.244 2.16V12.348L13.608 12.24L14.292 9.072H16.596V18.216H14.328L13.608 14.976L8.244 14.832V24.228L13.752 24.588V26.748H0.18V24.588L2.952 24.228V2.7Z" fill="#F8FAFC"/>
<path d="M22.7185 16.776C22.7185 14.52 23.1625 12.6 24.0505 11.016C24.9625 9.432 26.1745 8.244 27.6865 7.452C29.1985 6.636 30.8425 6.228 32.6185 6.228C35.6425 6.228 37.9705 7.164 39.6025 9.036C41.2585 10.884 42.0865 13.404 42.0865 16.596C42.0865 18.876 41.6305 20.82 40.7185 22.428C39.8305 24.012 38.6305 25.2 37.1185 25.992C35.6305 26.76 33.9865 27.144 32.1865 27.144C29.1865 27.144 26.8585 26.22 25.2025 24.372C23.5465 22.5 22.7185 19.968 22.7185 16.776ZM32.4745 24.804C35.1865 24.804 36.5425 22.188 36.5425 16.956C36.5425 14.22 36.2185 12.144 35.5705 10.728C34.9225 9.288 33.8665 8.568 32.4025 8.568C29.6185 8.568 28.2265 11.184 28.2265 16.416C28.2265 19.152 28.5625 21.24 29.2345 22.68C29.9305 24.096 31.0105 24.804 32.4745 24.804Z" fill="#F8FAFC"/>
<path d="M45.3592 24.624L47.7352 24.336V10.152L45.4312 9.504V7.02L51.0112 6.264H51.1192L52.0192 6.984V7.776L51.9112 10.692H52.0192C52.1872 10.212 52.5832 9.624 53.2072 8.928C53.8312 8.208 54.6112 7.584 55.5472 7.056C56.5072 6.504 57.5392 6.228 58.6432 6.228C59.1712 6.228 59.6272 6.3 60.0112 6.444V11.844C59.2912 11.34 58.4152 11.088 57.3832 11.088C55.6312 11.088 54.1072 11.556 52.8112 12.492V24.3L56.9872 24.624V26.748H45.3592V24.624Z" fill="#F8FAFC"/>
<path d="M78.4074 16.128L70.7034 2.7L68.6514 2.232V0H79.2354V2.232L76.6794 2.7L81.1794 11.52L82.1874 14.004L83.2314 11.52L87.3714 2.7L84.5634 2.232V0H93.3474V2.232L91.1154 2.664L83.9514 16.092V24.228L87.8754 24.588V26.748H74.5914V24.588L78.4074 24.228V16.128Z" fill="#F8FAFC"/>
<path d="M94.2967 16.776C94.2967 14.52 94.7407 12.6 95.6287 11.016C96.5407 9.432 97.7527 8.244 99.2647 7.452C100.777 6.636 102.421 6.228 104.197 6.228C107.221 6.228 109.549 7.164 111.181 9.036C112.837 10.884 113.665 13.404 113.665 16.596C113.665 18.876 113.209 20.82 112.297 22.428C111.409 24.012 110.209 25.2 108.697 25.992C107.209 26.76 105.565 27.144 103.765 27.144C100.765 27.144 98.4367 26.22 96.7807 24.372C95.1247 22.5 94.2967 19.968 94.2967 16.776ZM104.053 24.804C106.765 24.804 108.121 22.188 108.121 16.956C108.121 14.22 107.797 12.144 107.149 10.728C106.501 9.288 105.445 8.568 103.981 8.568C101.197 8.568 99.8047 11.184 99.8047 16.416C99.8047 19.152 100.141 21.24 100.813 22.68C101.509 24.096 102.589 24.804 104.053 24.804Z" fill="#F8FAFC"/>
<path d="M133.173 27.108C132.381 27.108 131.805 26.94 131.445 26.604C131.085 26.268 130.905 25.764 130.905 25.092V24.12C130.257 24.912 129.345 25.62 128.169 26.244C126.993 26.844 125.817 27.144 124.641 27.144C122.337 27.144 120.693 26.556 119.709 25.38C118.725 24.18 118.233 22.212 118.233 19.476V9.324L116.433 8.82V6.768L122.553 6.3H122.589L123.309 6.804V19.476C123.309 21.228 123.525 22.452 123.957 23.148C124.389 23.844 125.193 24.192 126.369 24.192C127.785 24.192 129.105 23.64 130.329 22.536V9.324L127.917 8.784V6.768L134.433 6.3H134.505L135.369 6.804V24.516H137.385L137.349 26.568C137.253 26.592 136.809 26.688 136.017 26.856C135.225 27.024 134.277 27.108 133.173 27.108Z" fill="#F8FAFC"/>
<path d="M82.55 32.643H85.388V33.27L84.618 33.402L85.432 36.328L85.696 37.527L85.938 36.317L86.928 32.643H88.259L89.348 36.317L89.612 37.527L89.876 36.328L90.646 33.413L89.843 33.27V32.643H92.197V33.27L91.636 33.391L89.964 38.836H88.699L87.588 35.272L87.335 33.963L87.137 35.272L86.114 38.836H84.838L83.078 33.391L82.55 33.27V32.643Z" fill="#F8FAFC"/>
<path d="M95.2093 38.869C94.2413 38.869 93.5189 38.5867 93.0423 38.022C92.5729 37.45 92.3383 36.6727 92.3383 35.69C92.3383 35.03 92.4593 34.458 92.7013 33.974C92.9506 33.49 93.299 33.1197 93.7463 32.863C94.1936 32.6063 94.7106 32.478 95.2973 32.478C96.0306 32.478 96.5953 32.6723 96.9913 33.061C97.3873 33.4423 97.5926 33.9887 97.6073 34.7C97.6073 35.184 97.5779 35.5433 97.5193 35.778H93.9443C93.9736 36.4453 94.1313 36.966 94.4173 37.34C94.7033 37.7067 95.1103 37.89 95.6383 37.89C95.9243 37.89 96.2176 37.8423 96.5183 37.747C96.8263 37.6517 97.0683 37.538 97.2443 37.406L97.5193 38.011C97.3213 38.2237 96.9986 38.4217 96.5513 38.605C96.1113 38.781 95.6639 38.869 95.2093 38.869ZM96.0673 35.118C96.082 34.9127 96.0893 34.755 96.0893 34.645C96.0893 33.6697 95.7629 33.182 95.1103 33.182C94.7509 33.182 94.4723 33.325 94.2743 33.611C94.0763 33.897 93.9663 34.3993 93.9443 35.118H96.0673Z" fill="#F8FAFC"/>
<path d="M97.9901 29.97L100.003 29.728H100.025L100.333 29.937V33.182C100.531 32.984 100.773 32.819 101.059 32.687C101.352 32.5477 101.668 32.478 102.005 32.478C102.709 32.478 103.281 32.7273 103.721 33.226C104.168 33.7173 104.392 34.4727 104.392 35.492C104.392 36.1227 104.26 36.6947 103.996 37.208C103.732 37.7213 103.351 38.1283 102.852 38.429C102.361 38.7223 101.789 38.869 101.136 38.869C100.557 38.869 100.054 38.8213 99.6291 38.726C99.2038 38.6233 98.9325 38.5317 98.8151 38.451V30.674L97.9901 30.542V29.97ZM101.422 33.446C101.202 33.446 100.993 33.4973 100.795 33.6C100.604 33.6953 100.45 33.8053 100.333 33.93V37.945C100.377 38.0257 100.48 38.0917 100.641 38.143C100.802 38.1943 100.986 38.22 101.191 38.22C101.66 38.22 102.034 38.0037 102.313 37.571C102.599 37.131 102.742 36.482 102.742 35.624C102.742 34.8833 102.621 34.337 102.379 33.985C102.137 33.6257 101.818 33.446 101.422 33.446Z" fill="#F8FAFC"/>
<path d="M107.895 38.088L108.511 37.989V33.677L107.807 33.479V32.72L109.633 32.489L109.765 32.577L109.93 32.94V33.402C110.172 33.1673 110.517 32.962 110.964 32.786C111.419 32.6027 111.811 32.511 112.141 32.511C112.537 32.511 112.856 32.577 113.098 32.709C113.348 32.841 113.535 33.0463 113.659 33.325C113.901 33.105 114.22 32.9143 114.616 32.753C115.012 32.5917 115.401 32.511 115.782 32.511C116.435 32.511 116.897 32.7017 117.168 33.083C117.44 33.4643 117.575 34.0877 117.575 34.953V37.989L118.29 38.088V38.748H115.441V38.088L116.013 37.989V34.997C116.013 34.425 115.944 34.0253 115.804 33.798C115.672 33.5633 115.416 33.446 115.034 33.446C114.829 33.446 114.616 33.4937 114.396 33.589C114.184 33.677 113.993 33.787 113.824 33.919C113.876 34.1977 113.901 34.546 113.901 34.964V37.989L114.583 38.088V38.748H111.712V38.088L112.317 37.989V34.964C112.317 34.5827 112.292 34.2857 112.24 34.073C112.196 33.853 112.108 33.6953 111.976 33.6C111.844 33.4973 111.654 33.446 111.404 33.446C111.17 33.446 110.935 33.501 110.7 33.611C110.473 33.7137 110.268 33.8383 110.084 33.985V37.989L110.733 38.088V38.748H107.895V38.088Z" fill="#F8FAFC"/>
<path d="M118.914 37.032C118.914 36.3647 119.248 35.8623 119.915 35.525C120.59 35.1877 121.459 35.0153 122.522 35.008V34.755C122.522 34.4543 122.489 34.2197 122.423 34.051C122.364 33.8823 122.251 33.7577 122.082 33.677C121.921 33.589 121.682 33.545 121.367 33.545C121.008 33.545 120.685 33.5927 120.399 33.688C120.113 33.776 119.816 33.8933 119.508 34.04L119.167 33.336C119.277 33.2407 119.46 33.127 119.717 32.995C119.981 32.863 120.293 32.7493 120.652 32.654C121.011 32.5513 121.382 32.5 121.763 32.5C122.328 32.5 122.768 32.5733 123.083 32.72C123.406 32.8667 123.637 33.1013 123.776 33.424C123.915 33.7467 123.985 34.1793 123.985 34.722V38.088H124.579V38.704C124.432 38.7407 124.223 38.7773 123.952 38.814C123.681 38.8507 123.442 38.869 123.237 38.869C122.988 38.869 122.819 38.8323 122.731 38.759C122.65 38.6857 122.61 38.5353 122.61 38.308V38.011C122.412 38.231 122.155 38.429 121.84 38.605C121.525 38.781 121.169 38.869 120.773 38.869C120.436 38.869 120.124 38.7993 119.838 38.66C119.559 38.5133 119.336 38.3043 119.167 38.033C118.998 37.7543 118.914 37.4207 118.914 37.032ZM121.477 37.956C121.631 37.956 121.807 37.912 122.005 37.824C122.203 37.7287 122.375 37.615 122.522 37.483V35.679C121.862 35.679 121.367 35.7927 121.037 36.02C120.714 36.24 120.553 36.526 120.553 36.878C120.553 37.23 120.634 37.4977 120.795 37.681C120.964 37.8643 121.191 37.956 121.477 37.956Z" fill="#F8FAFC"/>
<path d="M127.927 41.718C126.945 41.718 126.233 41.564 125.793 41.256C125.353 40.948 125.133 40.53 125.133 40.002C125.133 39.7013 125.232 39.4153 125.43 39.144C125.636 38.88 125.881 38.682 126.167 38.55C125.83 38.352 125.661 38.0367 125.661 37.604C125.661 37.3547 125.742 37.12 125.903 36.9C126.065 36.6727 126.274 36.4967 126.53 36.372C126.127 36.218 125.826 35.9833 125.628 35.668C125.43 35.3527 125.331 34.9787 125.331 34.546C125.331 34.128 125.452 33.765 125.694 33.457C125.944 33.1417 126.274 32.8997 126.684 32.731C127.102 32.5623 127.553 32.478 128.037 32.478C128.895 32.478 129.533 32.643 129.951 32.973C130.047 32.8483 130.208 32.731 130.435 32.621C130.663 32.511 130.897 32.456 131.139 32.456H131.524V33.655H130.391C130.501 33.8897 130.556 34.139 130.556 34.403C130.564 35.0703 130.329 35.6057 129.852 36.009C129.376 36.405 128.723 36.603 127.894 36.603C127.55 36.603 127.26 36.5773 127.025 36.526C126.952 36.6213 126.893 36.724 126.849 36.834C126.813 36.9367 126.794 37.0283 126.794 37.109C126.794 37.351 126.879 37.516 127.047 37.604C127.223 37.692 127.535 37.736 127.982 37.736H129.159C130.655 37.736 131.403 38.2787 131.403 39.364C131.403 39.8187 131.242 40.2257 130.919 40.585C130.597 40.9443 130.168 41.223 129.632 41.421C129.097 41.619 128.529 41.718 127.927 41.718ZM128.004 35.921C128.686 35.921 129.027 35.4553 129.027 34.524C129.027 34.0473 128.939 33.699 128.763 33.479C128.595 33.2517 128.334 33.138 127.982 33.138C127.638 33.138 127.37 33.2517 127.179 33.479C126.996 33.699 126.904 34.0327 126.904 34.48C126.904 35.4407 127.271 35.921 128.004 35.921ZM128.092 40.959C128.554 40.959 128.954 40.8453 129.291 40.618C129.629 40.398 129.797 40.09 129.797 39.694C129.797 39.3787 129.713 39.1513 129.544 39.012C129.383 38.8727 129.09 38.803 128.664 38.803H127.465C127.282 38.803 127.113 38.792 126.959 38.77C126.761 39.034 126.662 39.3493 126.662 39.716C126.662 40.1193 126.772 40.4273 126.992 40.64C127.212 40.8527 127.579 40.959 128.092 40.959Z" fill="#F8FAFC"/>
<path d="M131.987 37.032C131.987 36.3647 132.321 35.8623 132.988 35.525C133.663 35.1877 134.532 35.0153 135.595 35.008V34.755C135.595 34.4543 135.562 34.2197 135.496 34.051C135.438 33.8823 135.324 33.7577 135.155 33.677C134.994 33.589 134.756 33.545 134.44 33.545C134.081 33.545 133.758 33.5927 133.472 33.688C133.186 33.776 132.889 33.8933 132.581 34.04L132.24 33.336C132.35 33.2407 132.534 33.127 132.79 32.995C133.054 32.863 133.366 32.7493 133.725 32.654C134.085 32.5513 134.455 32.5 134.836 32.5C135.401 32.5 135.841 32.5733 136.156 32.72C136.479 32.8667 136.71 33.1013 136.849 33.424C136.989 33.7467 137.058 34.1793 137.058 34.722V38.088H137.652V38.704C137.506 38.7407 137.297 38.7773 137.025 38.814C136.754 38.8507 136.516 38.869 136.31 38.869C136.061 38.869 135.892 38.8323 135.804 38.759C135.724 38.6857 135.683 38.5353 135.683 38.308V38.011C135.485 38.231 135.229 38.429 134.913 38.605C134.598 38.781 134.242 38.869 133.846 38.869C133.509 38.869 133.197 38.7993 132.911 38.66C132.633 38.5133 132.409 38.3043 132.24 38.033C132.072 37.7543 131.987 37.4207 131.987 37.032ZM134.55 37.956C134.704 37.956 134.88 37.912 135.078 37.824C135.276 37.7287 135.449 37.615 135.595 37.483V35.679C134.935 35.679 134.44 35.7927 134.11 36.02C133.788 36.24 133.626 36.526 133.626 36.878C133.626 37.23 133.707 37.4977 133.868 37.681C134.037 37.8643 134.264 37.956 134.55 37.956Z" fill="#F8FAFC"/>
<path d="M139.549 33.424L139.296 34.502H138.504V32.632H143.355L143.608 33.204L140.682 37.263L139.912 38.055L142.376 37.934L142.904 36.669L143.652 36.757L143.476 38.748H138.372L138.097 38.143L141.1 34.172L141.892 33.347L139.549 33.424Z" fill="#F8FAFC"/>
<path d="M145.781 31.631C145.517 31.631 145.308 31.554 145.154 31.4C145 31.246 144.923 31.048 144.923 30.806C144.923 30.5273 145.011 30.2963 145.187 30.113C145.363 29.9297 145.598 29.838 145.891 29.838C146.185 29.838 146.408 29.9187 146.562 30.08C146.716 30.234 146.793 30.4283 146.793 30.663C146.793 30.9563 146.705 31.191 146.529 31.367C146.353 31.543 146.108 31.631 145.792 31.631H145.781ZM145.198 33.677L144.417 33.468V32.731L146.43 32.489H146.452L146.76 32.709V38L147.497 38.088V38.748H144.428V38.088L145.198 37.989V33.677Z" fill="#F8FAFC"/>
<path d="M148.902 33.677L148.198 33.479V32.72L150.024 32.489H150.057L150.332 32.709V33.138L150.321 33.402C150.578 33.16 150.911 32.951 151.322 32.775C151.733 32.599 152.147 32.511 152.565 32.511C153.012 32.511 153.361 32.5953 153.61 32.764C153.867 32.9253 154.05 33.182 154.16 33.534C154.27 33.886 154.325 34.3627 154.325 34.964V38L154.996 38.088V38.748H152.158V38.088L152.752 38V34.964C152.752 34.5827 152.726 34.2857 152.675 34.073C152.624 33.853 152.528 33.6953 152.389 33.6C152.257 33.4973 152.066 33.446 151.817 33.446C151.399 33.446 150.952 33.6257 150.475 33.985V37.989L151.135 38.088V38.748H148.264V38.088L148.902 37.989V33.677Z" fill="#F8FAFC"/>
<path d="M158.545 38.869C157.577 38.869 156.855 38.5867 156.378 38.022C155.909 37.45 155.674 36.6727 155.674 35.69C155.674 35.03 155.795 34.458 156.037 33.974C156.287 33.49 156.635 33.1197 157.082 32.863C157.53 32.6063 158.047 32.478 158.633 32.478C159.367 32.478 159.931 32.6723 160.327 33.061C160.723 33.4423 160.929 33.9887 160.943 34.7C160.943 35.184 160.914 35.5433 160.855 35.778H157.28C157.31 36.4453 157.467 36.966 157.753 37.34C158.039 37.7067 158.446 37.89 158.974 37.89C159.26 37.89 159.554 37.8423 159.854 37.747C160.162 37.6517 160.404 37.538 160.58 37.406L160.855 38.011C160.657 38.2237 160.335 38.4217 159.887 38.605C159.447 38.781 159 38.869 158.545 38.869ZM159.403 35.118C159.418 34.9127 159.425 34.755 159.425 34.645C159.425 33.6697 159.099 33.182 158.446 33.182C158.087 33.182 157.808 33.325 157.61 33.611C157.412 33.897 157.302 34.3993 157.28 35.118H159.403Z" fill="#F8FAFC"/>
</svg>
