<svg width="32" height="32" viewBox="0 0 32 32" fill="none" xmlns="http://www.w3.org/2000/svg">
<path d="M29.4668 28.6666L3.20013 2.2666L1.4668 3.99993L9.20013 11.7333L2.6668 12.2666L10.0001 18.6666L7.8668 27.9999L16.1335 23.0666L24.4001 27.9999L24.0001 26.3999L27.8668 30.2666L29.4668 28.6666ZM21.0668 23.5999L16.0001 20.5333L10.9335 23.5999L12.2668 17.8666L7.8668 13.9999L11.2001 13.7333L21.0668 23.5999ZM14.9335 10.6666L13.3335 9.0666L16.0001 2.6666L19.7335 11.4666L29.3335 12.2666L22.5335 18.1333L21.0668 16.6666L24.2668 13.9999L18.4001 13.4666L16.1335 8.13327L14.9335 10.6666Z" fill="#EAB308"/>
</svg>
