<svg width="24" height="24" viewBox="0 0 24 24" fill="none" xmlns="http://www.w3.org/2000/svg">
<path d="M23.2047 12.745C22.3226 10.4632 20.7912 8.48996 18.7998 7.06906C16.8084 5.64817 14.4443 4.84193 11.9997 4.75C9.55507 4.84193 7.19097 5.64817 5.19958 7.06906C3.20819 8.48996 1.6768 10.4632 0.794681 12.745C0.735106 12.9098 0.735106 13.0902 0.794681 13.255C1.6768 15.5368 3.20819 17.51 5.19958 18.9309C7.19097 20.3518 9.55507 21.1581 11.9997 21.25C14.4443 21.1581 16.8084 20.3518 18.7998 18.9309C20.7912 17.51 22.3226 15.5368 23.2047 13.255C23.2643 13.0902 23.2643 12.9098 23.2047 12.745ZM11.9997 19.75C8.02468 19.75 3.82468 16.8025 2.30218 13C3.82468 9.1975 8.02468 6.25 11.9997 6.25C15.9747 6.25 20.1747 9.1975 21.6972 13C20.1747 16.8025 15.9747 19.75 11.9997 19.75Z" fill="white"/>
<path d="M12 8.5C11.11 8.5 10.24 8.76392 9.49994 9.25839C8.75991 9.75285 8.18314 10.4557 7.84254 11.2779C7.50195 12.1002 7.41283 13.005 7.58647 13.8779C7.7601 14.7508 8.18869 15.5526 8.81802 16.182C9.44736 16.8113 10.2492 17.2399 11.1221 17.4135C11.995 17.5872 12.8998 17.4981 13.7221 17.1575C14.5443 16.8169 15.2471 16.2401 15.7416 15.5001C16.2361 14.76 16.5 13.89 16.5 13C16.5 11.8065 16.0259 10.6619 15.182 9.81802C14.3381 8.97411 13.1935 8.5 12 8.5ZM12 16C11.4067 16 10.8266 15.8241 10.3333 15.4944C9.83994 15.1648 9.45543 14.6962 9.22836 14.148C9.0013 13.5999 8.94189 12.9967 9.05765 12.4147C9.1734 11.8328 9.45912 11.2982 9.87868 10.8787C10.2982 10.4591 10.8328 10.1734 11.4147 10.0576C11.9967 9.94189 12.5999 10.0013 13.1481 10.2284C13.6962 10.4554 14.1648 10.8399 14.4944 11.3333C14.8241 11.8266 15 12.4067 15 13C15 13.7956 14.6839 14.5587 14.1213 15.1213C13.5587 15.6839 12.7957 16 12 16Z" fill="white"/>
</svg>
