<svg width="16" height="16" viewBox="0 0 16 16" fill="none" xmlns="http://www.w3.org/2000/svg">
<path d="M15.4698 8.49663C14.8817 6.97545 13.8608 5.65993 12.5332 4.71267C11.2056 3.7654 9.62953 3.22791 7.99979 3.16663C6.37005 3.22791 4.79398 3.7654 3.46639 4.71267C2.1388 5.65993 1.11787 6.97545 0.529787 8.49663C0.490071 8.60648 0.490071 8.72677 0.529787 8.83663C1.11787 10.3578 2.1388 11.6733 3.46639 12.6206C4.79398 13.5678 6.37005 14.1053 7.99979 14.1666C9.62953 14.1053 11.2056 13.5678 12.5332 12.6206C13.8608 11.6733 14.8817 10.3578 15.4698 8.83663C15.5095 8.72677 15.5095 8.60648 15.4698 8.49663ZM7.99979 13.1666C5.34979 13.1666 2.54979 11.2016 1.53479 8.66663C2.54979 6.13163 5.34979 4.16663 7.99979 4.16663C10.6498 4.16663 13.4498 6.13163 14.4648 8.66663C13.4498 11.2016 10.6498 13.1666 7.99979 13.1666Z" fill="#1E293B"/>
<path d="M8 5.66663C7.40666 5.66663 6.82664 5.84257 6.33329 6.17222C5.83994 6.50186 5.45543 6.9704 5.22836 7.51858C5.0013 8.06675 4.94189 8.66995 5.05765 9.2519C5.1734 9.83384 5.45912 10.3684 5.87868 10.7879C6.29824 11.2075 6.83279 11.4932 7.41473 11.609C7.99667 11.7247 8.59987 11.6653 9.14805 11.4383C9.69623 11.2112 10.1648 10.8267 10.4944 10.3333C10.8241 9.83999 11 9.25997 11 8.66663C11 7.87098 10.6839 7.10791 10.1213 6.54531C9.55871 5.9827 8.79565 5.66663 8 5.66663ZM8 10.6666C7.60444 10.6666 7.21776 10.5493 6.88886 10.3296C6.55996 10.1098 6.30362 9.79744 6.15224 9.43199C6.00087 9.06654 5.96126 8.66441 6.03843 8.27645C6.1156 7.88848 6.30608 7.53212 6.58579 7.25241C6.86549 6.97271 7.22186 6.78223 7.60982 6.70506C7.99778 6.62788 8.39992 6.66749 8.76537 6.81887C9.13082 6.97024 9.44318 7.22659 9.66294 7.55549C9.8827 7.88438 10 8.27106 10 8.66663C10 9.19706 9.78929 9.70577 9.41421 10.0808C9.03914 10.4559 8.53043 10.6666 8 10.6666Z" fill="#1E293B"/>
</svg>
